<svg width="294" height="106" viewBox="0 0 294 106" fill="none" xmlns="http://www.w3.org/2000/svg">
<path d="M72.5 78.5V23C71 19.5 66.5 18.5 64 23V78.5C66 82.5 70.5 82.5 72.5 78.5Z" fill="white" stroke="black"/>
<path d="M24.5 54C6.49999 54 0.500003 42 2.99998 35C5.32119 22.2334 24.7044 13.9567 41 20.3607C45.7653 22.2334 50.2666 25.3616 54 30C55 37 53 36 48.5 36C38.5 22.5 17.5 25.5 12 35C6.5 44.5 21.9 45.7 33.5 46.5C39 46.5 62.5 49 55 72C45 82.5 19.5 87.5 5.00001 74C0.999997 71.5 -1.99999 62 8.50001 63.5C8.50001 70 19 76.2759 35.5 74C50 72 52 57.5 40 55.5L24.5 54Z" fill="white" stroke="black"/>
<path d="M73.5 8.5C73.5 12.4759 70.9392 15.5 68 15.5C65.0608 15.5 62.5 12.4759 62.5 8.5C62.5 4.52412 65.0608 1.5 68 1.5C70.9392 1.5 73.5 4.52412 73.5 8.5Z" fill="white" stroke="black"/>
<path d="M83.5 36.5C91 17 117.5 14 130.5 28C128.5 19 138.5 15.5 139 27.5L138.5 80.5C137 105.5 107.5 110.5 88.5 98C80 94 83.5 86.5 90.5 89.5C104.5 101.5 130.5 96 130.5 80.5V71.5C127 76 121 82.5 113.5 82.5C90 84 72 63 83.5 36.5Z" fill="white" stroke="black"/>
<path d="M130.5 50C130.5 63.0318 121.048 73.5 109.5 73.5C97.9523 73.5 88.5 63.0318 88.5 50C88.5 36.9682 97.9523 26.5 109.5 26.5C121.048 26.5 130.5 36.9682 130.5 50Z" fill="#111827" stroke="black"/>
<path d="M146.5 79V22.5C148 19.5 149.5 18.5 154.5 21.5V33L155 31.5C156.062 26.9497 160.574 22.9515 166.5 20.6221C180.108 15.2727 201.168 18.7241 205 44.5V78C203.5 83 199.5 83.5 197 79V44.5C191.5 22.5 164.5 20.5 155 44.5V78C152 84 149 82.5 146.5 79Z" fill="white"/>
<path d="M146.5 22.5V79C149 82.5 152 84 155 78V44.5C164.5 20.5 191.5 22.5 197 44.5V79C199.5 83.5 203.5 83 205 78V44.5C201.168 18.7241 180.108 15.2727 166.5 20.6221C160.574 22.9515 156.062 26.9497 155 31.5L154.5 33V34.5V21.5C149.5 18.5 148 19.5 146.5 22.5Z" stroke="black"/>
<path d="M212.5 78.5L236.5 19C239.5 15 247 9 254 19L256.239 24.5L277 75.5C279.5 86 277 88.5 270 91.5H223C216.5 90 212.5 86.5 212.5 78.5Z" fill="white" stroke="black"/>
<path d="M259.5 45C254.5 55 237.5 65 223.5 65L240.5 21.5C242.167 21.5 244.5 17 249.5 21.5L259.5 45Z" fill="#111827" stroke="black"/>
<path d="M293.5 78.5V4.5C291.5 -0.999997 286.5 -0.5 284.5 4.5V78.5C287 83.5 290.5 84 293.5 78.5Z" fill="white" stroke="black"/>
</svg>
